<svg xmlns="http://www.w3.org/2000/svg" width="1440" height="568" fill="none"><g fill="#4C5155" clip-path="url(#a)"><path d="M655 3.944V0h2v3.944h-2zm0 15.778v-7.889h2v7.89h-2zm0 15.778v-7.889h2v7.89h-2zm0 15.778v-7.89h2v7.89h-2zm0 15.777v-7.889h2v7.89h-2zm0 15.778v-7.889h2v7.89h-2zm0 15.778v-7.889h2v7.89h-2zm0 15.778V106.5h2v7.889h-2zm0 15.778v-7.889h2v7.889h-2zm0 15.777v-7.888h2v7.888h-2zm0 15.778v-7.889h2v7.889h-2zm0 15.778v-7.889h2v7.889h-2zm0 15.778v-7.889h2v7.889h-2zm0 15.777v-7.888h2v7.888h-2zm0 15.778V221h-3v-2h3v-2.056h2V219h3v2h-3v3.833h-2zm0 15.778v-7.889h2v7.889h-2zm0 15.778V248.5h2v7.889h-2zm0 15.778v-7.889h2v7.889h-2zm0 15.777v-7.889h2v7.889h-2zm0 15.778v-7.889h2v7.889h-2zm0 15.778v-7.889h2v7.889h-2zm0 15.778v-7.889h2v7.889h-2zm0 15.777V349h-3v-2h3v-3.833h2V347h3v2h-3v2.055h-2zm0 15.778v-7.889h2v7.889h-2zm0 15.778v-7.889h2v7.889h-2zm0 15.778V390.5h2v7.889h-2zm0 15.778v-7.889h2v7.889h-2zm0 15.777v-7.889h2v7.889h-2zm0 15.778v-7.889h2v7.889h-2zm0 15.778v-7.889h2v7.889h-2zm0 15.778v-7.889h2v7.889h-2zm0 15.777v-7.888h2v7.888h-2zm0 15.778v-7.889h2v7.889h-2zm0 15.778v-7.889h2v7.889h-2zm0 15.778V532.5h2v7.889h-2zm0 15.778v-7.889h2v7.889h-2zM655 568v-3.944h2V568h-2zM0 221h4v-2H0v2zm12 0h8v-2h-8v2zm16 0h8v-2h-8v2zm16 0h8v-2h-8v2zm16 0h8v-2h-8v2zm16 0h8v-2h-8v2zm16 0h8v-2h-8v2zm16 0h8v-2h-8v2zm16 0h8v-2h-8v2zm16 0h8v-2h-8v2zm16 0h8v-2h-8v2zm16 0h8v-2h-8v2zm16 0h8v-2h-8v2zm16 0h8v-2h-8v2zm16 0h8v-2h-8v2zm16 0h8v-2h-8v2zm16 0h8v-2h-8v2zm16 0h8v-2h-8v2zm16 0h8v-2h-8v2zm16 0h8v-2h-8v2zm16 0h8v-2h-8v2zm16 0h8v-2h-8v2zm16 0h8v-2h-8v2zm16 0h8v-2h-8v2zm16 0h8v-2h-8v2zm16 0h8v-2h-8v2zm16 0h8v-2h-8v2zm16 0h8v-2h-8v2zm16 0h8v-2h-8v2zm16 0h8v-2h-8v2zm16 0h8v-2h-8v2zm16 0h8v-2h-8v2zm16 0h8v-2h-8v2zm16 0h8v-2h-8v2zm16 0h8v-2h-8v2zm16 0h8v-2h-8v2zm16 0h8v-2h-8v2zm16 0h8v-2h-8v2zm16 0h8v-2h-8v2zm16 0h8v-2h-8v2zm16 0h8v-2h-8v2zm32 0h8v-2h-8v2zm16 0h8v-2h-8v2zm16 0h8v-2h-8v2zm16 0h8v-2h-8v2zm16 0h8v-2h-8v2zm16 0h8v-2h-8v2zm16 0h8v-2h-8v2zm21 0h3v-2h-3v-2.056h-2V219h-3v2h3v3.833h2V221zm11 0h8v-2h-8v2zm16 0h8v-2h-8v2zm16 0h8v-2h-8v2zm16 0h8v-2h-8v2zm16 0h8v-2h-8v2zm16 0h8v-2h-8v2zm16 0h8v-2h-8v2zm16 0h8v-2h-8v2zm16 0h8v-2h-8v2zm16 0h8v-2h-8v2zm16 0h8v-2h-8v2zm16 0h8v-2h-8v2zm16 0h8v-2h-8v2zm16 0h8v-2h-8v2zm16 0h8v-2h-8v2zm16 0h8v-2h-8v2zm16 0h8v-2h-8v2zm16 0h8v-2h-8v2zm16 0h8v-2h-8v2zm16 0h8v-2h-8v2zm16 0h8v-2h-8v2zm16 0h8v-2h-8v2zm16 0h8v-2h-8v2zm16 0h8v-2h-8v2zm16 0h8v-2h-8v2zm16 0h8v-2h-8v2zm16 0h8v-2h-8v2zm16 0h8v-2h-8v2zm16 0h8v-2h-8v2zm16 0h8v-2h-8v2zm16 0h8v-2h-8v2zm16 0h8v-2h-8v2zm16 0h8v-2h-8v2zm16 0h8v-2h-8v2zm16 0h8v-2h-8v2zm16 0h8v-2h-8v2zm16 0h8v-2h-8v2zm16 0h8v-2h-8v2zm16 0h8v-2h-8v2zm16 0h8v-2h-8v2zm16 0h4v-2h-4v2zM0 349h4v-2H0v2zm12 0h8v-2h-8v2zm16 0h8v-2h-8v2zm16 0h8v-2h-8v2zm16 0h8v-2h-8v2zm16 0h8v-2h-8v2zm16 0h8v-2h-8v2zm16 0h8v-2h-8v2zm16 0h8v-2h-8v2zm16 0h8v-2h-8v2zm16 0h8v-2h-8v2zm16 0h8v-2h-8v2zm16 0h8v-2h-8v2zm16 0h8v-2h-8v2zm16 0h8v-2h-8v2zm16 0h8v-2h-8v2zm16 0h8v-2h-8v2zm16 0h8v-2h-8v2zm16 0h8v-2h-8v2zm16 0h8v-2h-8v2zm16 0h8v-2h-8v2zm16 0h8v-2h-8v2zm16 0h8v-2h-8v2zm16 0h8v-2h-8v2zm16 0h8v-2h-8v2zm16 0h8v-2h-8v2zm16 0h8v-2h-8v2zm16 0h8v-2h-8v2zm16 0h8v-2h-8v2zm16 0h8v-2h-8v2zm16 0h8v-2h-8v2zm16 0h8v-2h-8v2zm16 0h8v-2h-8v2zm16 0h8v-2h-8v2zm16 0h8v-2h-8v2zm16 0h8v-2h-8v2zm16 0h8v-2h-8v2zm16 0h8v-2h-8v2zm16 0h8v-2h-8v2zm16 0h8v-2h-8v2zm16 0h8v-2h-8v2zm32 0h8v-2h-8v2zm16 0h8v-2h-8v2zm16 0h8v-2h-8v2zm16 0h8v-2h-8v2zm16 0h8v-2h-8v2zm16 0h8v-2h-8v2zm16 0h8v-2h-8v2zm21 0h3v-2h-3v-3.833h-2V347h-3v2h3v2.055h2V349zm11 0h8v-2h-8v2zm16 0h8v-2h-8v2zm16 0h8v-2h-8v2zm16 0h8v-2h-8v2zm16 0h8v-2h-8v2zm16 0h8v-2h-8v2zm16 0h8v-2h-8v2zm16 0h8v-2h-8v2zm16 0h8v-2h-8v2zm16 0h8v-2h-8v2zm16 0h8v-2h-8v2zm16 0h8v-2h-8v2zm16 0h8v-2h-8v2zm16 0h8v-2h-8v2zm16 0h8v-2h-8v2zm16 0h8v-2h-8v2zm16 0h8v-2h-8v2zm16 0h8v-2h-8v2zm16 0h8v-2h-8v2zm16 0h8v-2h-8v2zm16 0h8v-2h-8v2zm16 0h8v-2h-8v2zm16 0h8v-2h-8v2zm16 0h8v-2h-8v2zm16 0h8v-2h-8v2zm16 0h8v-2h-8v2zm16 0h8v-2h-8v2zm16 0h8v-2h-8v2zm16 0h8v-2h-8v2zm16 0h8v-2h-8v2zm16 0h8v-2h-8v2zm16 0h8v-2h-8v2zm16 0h8v-2h-8v2zm16 0h8v-2h-8v2zm16 0h8v-2h-8v2zm16 0h8v-2h-8v2zm16 0h8v-2h-8v2zm16 0h8v-2h-8v2zm16 0h8v-2h-8v2zm16 0h8v-2h-8v2zm16 0h4v-2h-4v2zM783 0v3.944h2V0h-2zm0 11.834v7.888h2v-7.889h-2zm0 15.777v7.89h2v-7.89h-2zm0 15.778v7.889h2v-7.89h-2zm0 15.777v7.89h2v-7.89h-2zm0 15.778v7.89h2v-7.89h-2zm0 15.778v7.89h2v-7.89h-2zm0 15.778v7.889h2V106.5h-2zm0 15.778v7.889h2v-7.889h-2zm0 15.778v7.888h2v-7.888h-2zm0 15.777v7.889h2v-7.889h-2zm0 15.778v7.889h2v-7.889h-2zm0 15.778v7.889h2v-7.889h-2zm0 15.778v7.888h2v-7.888h-2zm0 31.555v7.889h2v-7.889h-2zm0 15.778v7.889h2V248.5h-2zm0 15.778v7.889h2v-7.889h-2zm0 15.777v7.889h2v-7.889h-2zm0 15.778v7.889h2v-7.889h-2zm0 15.778v7.889h2v-7.889h-2zm0 15.778v7.889h2v-7.889h-2zm0 31.555v7.889h2v-7.889h-2zm0 15.778v7.889h2v-7.889h-2zm0 15.778v7.889h2V390.5h-2zm0 15.778v7.889h2v-7.889h-2zm0 15.777v7.889h2v-7.889h-2zm0 15.778v7.889h2v-7.889h-2zm0 15.778v7.889h2v-7.889h-2zm0 15.778v7.889h2v-7.889h-2zm0 15.778v7.888h2v-7.888h-2zm0 15.777v7.889h2v-7.889h-2zm0 15.778v7.889h2v-7.889h-2zm0 15.778v7.889h2V532.5h-2zm0 15.778v7.889h2v-7.889h-2zm0 15.778V568h2v-3.944h-2z"/></g><defs><clipPath id="a"><path fill="#fff" d="M0 0h1440v568H0z"/></clipPath></defs></svg>