<svg xmlns="http://www.w3.org/2000/svg" width="1440" height="570" fill="none"><g clip-path="url(#a)"><path fill="#4C5155" fill-rule="evenodd" d="M435.293 568.293 589.586 414H0v-2h591V286H0v-2h591V158H0v-2h589.586L435.293 1.707l1.414-1.414L591 154.586V1h2v155h126V1h2v155h126V1h2v153.586L1003.29.293l1.42 1.414L850.414 156H1440v2H849v126h591v2H849v126h591v2H850.414l154.296 154.293-1.42 1.414L849 415.414V569h-2V414H721v155h-2V414H593v155h-2V415.414L436.707 569.707l-1.414-1.414zM824.995 286c-.263 28.239-11.674 53.814-30.045 72.536l52.05 52.05V286h-22.005zM847 284V159.414l-52.05 52.05c18.371 18.722 29.782 44.297 30.045 72.536H847zM593 159.414V284h22.005c.263-28.239 11.674-53.814 30.045-72.536L593 159.414zM593 286v124.586l52.05-52.05c-18.371-18.722-29.782-44.297-30.045-72.536H593zm1.414 126H719v-22.005c-28.239-.263-53.814-11.674-72.536-30.045L594.414 412zM721 412h124.586l-52.05-52.05c-18.722 18.371-44.297 29.782-72.536 30.045V412zm72.536-54.878c18.008-18.36 29.196-43.435 29.459-71.122H722.414l71.122 71.122zM822.995 284c-.263-27.687-11.451-52.762-29.459-71.121L722.414 284h100.581zM721 180.005V158h124.586l-52.05 52.05c-18.722-18.371-44.297-29.782-72.536-30.045zm71.122 31.459c-18.36-18.008-43.435-29.196-71.122-29.459v100.581l71.122-71.122zM719 158v22.005c-28.239.263-53.814 11.674-72.536 30.045L594.414 158H719zm0 24.005c-27.687.263-52.762 11.451-71.121 29.459L719 282.586V182.005zm-72.536 30.874c-18.008 18.359-29.196 43.434-29.459 71.121h100.581l-71.122-71.121zM717.586 286H617.005c.263 27.687 11.451 52.762 29.459 71.122L717.586 286zm1.414 1.414v100.581c-27.687-.263-52.762-11.45-71.121-29.459L719 287.414zm2 0v100.581c27.687-.263 52.762-11.45 71.121-29.459L721 287.414z" clip-rule="evenodd"/></g><defs><clipPath id="a"><path fill="#fff" d="M0 0h1440v570H0z"/></clipPath></defs></svg>